<svg xmlns="http://www.w3.org/2000/svg" width="800" height="500" viewBox="0 0 800 500">
  <defs>
    <linearGradient id="g" x1="0" y1="0" x2="1" y2="1">
      <stop offset="0%" stop-color="#0891b2"/>
      <stop offset="100%" stop-color="#1d4ed8"/>
    </linearGradient>
  </defs>
  <rect width="800" height="500" fill="url(#g)"/>
  <g transform="translate(320,150) scale(6.5)" stroke="#ffffff" stroke-width="1.2" fill="none" stroke-linecap="round" stroke-linejoin="round" opacity="0.85">
    <path d="M2 15c1.5 1.5 3 1.5 4.5 0s3-1.5 4.5 0 3 1.5 4.5 0 3-1.5 4.5 0"/><path d="M2 19c1.5 1.5 3 1.5 4.5 0s3-1.5 4.5 0 3 1.5 4.5 0 3-1.5 4.5 0"/><path d="M8 9V5a2 2 0 0 1 4 0v4"/>
  </g>
</svg>